<svg xmlns="http://www.w3.org/2000/svg" xmlns:xlink="http://www.w3.org/1999/xlink" width="500" zoomAndPan="magnify" viewBox="0 0 375 374.999991" height="500" preserveAspectRatio="xMidYMid meet" version="1.0"><defs><g/><clipPath id="698660f7d3"><rect x="0" width="304" y="0" height="112"/></clipPath></defs><g transform="matrix(1, 0, 0, 1, 35, 136)"><g clip-path="url(#698660f7d3)"><g fill="#ffffff" fill-opacity="1"><g transform="translate(0.840508, 46.614511)"><g><path d="M 0.40625 -34.078125 L 0.40625 -42.609375 L 30.359375 -42.609375 L 30.359375 -34.078125 L 20.25 -34.078125 L 20.25 0 L 10.53125 0 L 10.53125 -34.078125 Z M 0.40625 -34.078125 "/></g></g></g><g fill="#ffffff" fill-opacity="1"><g transform="translate(29.400512, 46.614511)"><g><path d="M 1.1875 -21.328125 C 1.1875 -27.492188 3.285156 -32.707031 7.484375 -36.96875 C 11.679688 -41.238281 16.742188 -43.375 22.671875 -43.375 C 28.628906 -43.375 33.6875 -41.25 37.84375 -37 C 42.007812 -32.75 44.09375 -27.523438 44.09375 -21.328125 C 44.09375 -15.097656 42.046875 -9.851562 37.953125 -5.59375 C 33.859375 -1.34375 28.765625 0.78125 22.671875 0.78125 C 16.441406 0.78125 11.300781 -1.328125 7.25 -5.546875 C 3.207031 -9.765625 1.1875 -15.023438 1.1875 -21.328125 Z M 11.671875 -21.328125 C 11.671875 -19.085938 12.015625 -17.046875 12.703125 -15.203125 C 13.390625 -13.367188 14.59375 -11.8125 16.3125 -10.53125 C 18.039062 -9.257812 20.160156 -8.625 22.671875 -8.625 C 26.285156 -8.625 29.015625 -9.863281 30.859375 -12.34375 C 32.703125 -14.820312 33.625 -17.816406 33.625 -21.328125 C 33.625 -24.804688 32.679688 -27.789062 30.796875 -30.28125 C 28.921875 -32.78125 26.210938 -34.03125 22.671875 -34.03125 C 19.160156 -34.03125 16.445312 -32.78125 14.53125 -30.28125 C 12.625 -27.789062 11.671875 -24.804688 11.671875 -21.328125 Z M 11.671875 -21.328125 "/></g></g></g><g fill="#ffffff" fill-opacity="1"><g transform="translate(72.472946, 46.614511)"><g><path d="M 1.1875 -21.328125 C 1.1875 -27.492188 3.285156 -32.707031 7.484375 -36.96875 C 11.679688 -41.238281 16.742188 -43.375 22.671875 -43.375 C 28.628906 -43.375 33.6875 -41.25 37.84375 -37 C 42.007812 -32.75 44.09375 -27.523438 44.09375 -21.328125 C 44.09375 -15.097656 42.046875 -9.851562 37.953125 -5.59375 C 33.859375 -1.34375 28.765625 0.78125 22.671875 0.78125 C 16.441406 0.78125 11.300781 -1.328125 7.25 -5.546875 C 3.207031 -9.765625 1.1875 -15.023438 1.1875 -21.328125 Z M 11.671875 -21.328125 C 11.671875 -19.085938 12.015625 -17.046875 12.703125 -15.203125 C 13.390625 -13.367188 14.59375 -11.8125 16.3125 -10.53125 C 18.039062 -9.257812 20.160156 -8.625 22.671875 -8.625 C 26.285156 -8.625 29.015625 -9.863281 30.859375 -12.34375 C 32.703125 -14.820312 33.625 -17.816406 33.625 -21.328125 C 33.625 -24.804688 32.679688 -27.789062 30.796875 -30.28125 C 28.921875 -32.78125 26.210938 -34.03125 22.671875 -34.03125 C 19.160156 -34.03125 16.445312 -32.78125 14.53125 -30.28125 C 12.625 -27.789062 11.671875 -24.804688 11.671875 -21.328125 Z M 11.671875 -21.328125 "/></g></g></g><g fill="#ffffff" fill-opacity="1"><g transform="translate(115.54609, 46.614511)"><g/></g></g><g fill="#ffffff" fill-opacity="1"><g transform="translate(127.424537, 46.614511)"><g/></g></g><g fill="#ffffff" fill-opacity="1"><g transform="translate(139.303104, 46.614511)"><g><path d="M 41.625 -23.859375 L 41.625 -14.609375 C 40.519531 -9.546875 38.109375 -5.710938 34.390625 -3.109375 C 30.671875 -0.515625 26.523438 0.78125 21.953125 0.78125 C 16.203125 0.78125 11.300781 -1.367188 7.25 -5.671875 C 3.207031 -9.984375 1.1875 -15.1875 1.1875 -21.28125 C 1.1875 -27.476562 3.164062 -32.707031 7.125 -36.96875 C 11.082031 -41.238281 16.023438 -43.375 21.953125 -43.375 C 28.867188 -43.375 34.34375 -40.945312 38.375 -36.09375 L 32.015625 -29.125 C 29.742188 -32.769531 26.578125 -34.59375 22.515625 -34.59375 C 19.515625 -34.59375 16.957031 -33.289062 14.84375 -30.6875 C 12.726562 -28.09375 11.671875 -24.957031 11.671875 -21.28125 C 11.671875 -17.664062 12.726562 -14.570312 14.84375 -12 C 16.957031 -9.4375 19.515625 -8.15625 22.515625 -8.15625 C 24.992188 -8.15625 27.15625 -8.90625 29 -10.40625 C 30.84375 -11.90625 31.765625 -13.894531 31.765625 -16.375 L 21.953125 -16.375 L 21.953125 -23.859375 Z M 41.625 -23.859375 "/></g></g></g><g fill="#ffffff" fill-opacity="1"><g transform="translate(179.896551, 46.614511)"><g><path d="M 1.1875 -21.328125 C 1.1875 -27.492188 3.285156 -32.707031 7.484375 -36.96875 C 11.679688 -41.238281 16.742188 -43.375 22.671875 -43.375 C 28.628906 -43.375 33.6875 -41.25 37.84375 -37 C 42.007812 -32.75 44.09375 -27.523438 44.09375 -21.328125 C 44.09375 -15.097656 42.046875 -9.851562 37.953125 -5.59375 C 33.859375 -1.34375 28.765625 0.78125 22.671875 0.78125 C 16.441406 0.78125 11.300781 -1.328125 7.25 -5.546875 C 3.207031 -9.765625 1.1875 -15.023438 1.1875 -21.328125 Z M 11.671875 -21.328125 C 11.671875 -19.085938 12.015625 -17.046875 12.703125 -15.203125 C 13.390625 -13.367188 14.59375 -11.8125 16.3125 -10.53125 C 18.039062 -9.257812 20.160156 -8.625 22.671875 -8.625 C 26.285156 -8.625 29.015625 -9.863281 30.859375 -12.34375 C 32.703125 -14.820312 33.625 -17.816406 33.625 -21.328125 C 33.625 -24.804688 32.679688 -27.789062 30.796875 -30.28125 C 28.921875 -32.78125 26.210938 -34.03125 22.671875 -34.03125 C 19.160156 -34.03125 16.445312 -32.78125 14.53125 -30.28125 C 12.625 -27.789062 11.671875 -24.804688 11.671875 -21.328125 Z M 11.671875 -21.328125 "/></g></g></g><g fill="#ffffff" fill-opacity="1"><g transform="translate(222.968984, 46.614511)"><g><path d="M 1.1875 -21.328125 C 1.1875 -27.492188 3.285156 -32.707031 7.484375 -36.96875 C 11.679688 -41.238281 16.742188 -43.375 22.671875 -43.375 C 28.628906 -43.375 33.6875 -41.25 37.84375 -37 C 42.007812 -32.75 44.09375 -27.523438 44.09375 -21.328125 C 44.09375 -15.097656 42.046875 -9.851562 37.953125 -5.59375 C 33.859375 -1.34375 28.765625 0.78125 22.671875 0.78125 C 16.441406 0.78125 11.300781 -1.328125 7.25 -5.546875 C 3.207031 -9.765625 1.1875 -15.023438 1.1875 -21.328125 Z M 11.671875 -21.328125 C 11.671875 -19.085938 12.015625 -17.046875 12.703125 -15.203125 C 13.390625 -13.367188 14.59375 -11.8125 16.3125 -10.53125 C 18.039062 -9.257812 20.160156 -8.625 22.671875 -8.625 C 26.285156 -8.625 29.015625 -9.863281 30.859375 -12.34375 C 32.703125 -14.820312 33.625 -17.816406 33.625 -21.328125 C 33.625 -24.804688 32.679688 -27.789062 30.796875 -30.28125 C 28.921875 -32.78125 26.210938 -34.03125 22.671875 -34.03125 C 19.160156 -34.03125 16.445312 -32.78125 14.53125 -30.28125 C 12.625 -27.789062 11.671875 -24.804688 11.671875 -21.328125 Z M 11.671875 -21.328125 "/></g></g></g><g fill="#ffffff" fill-opacity="1"><g transform="translate(266.041424, 46.614511)"><g><path d="M 3.09375 -42.609375 L 15.4375 -42.609375 C 21.363281 -42.609375 26.425781 -40.582031 30.625 -36.53125 C 34.820312 -32.488281 36.921875 -27.421875 36.921875 -21.328125 C 36.921875 -15.203125 34.828125 -10.113281 30.640625 -6.0625 C 26.460938 -2.019531 21.394531 0 15.4375 0 L 3.09375 0 Z M 12.8125 -8.671875 L 14.296875 -8.671875 C 17.847656 -8.671875 20.75 -9.867188 23 -12.265625 C 25.257812 -14.660156 26.40625 -17.664062 26.4375 -21.28125 C 26.4375 -24.894531 25.304688 -27.90625 23.046875 -30.3125 C 20.796875 -32.71875 17.878906 -33.921875 14.296875 -33.921875 L 12.8125 -33.921875 Z M 12.8125 -8.671875 "/></g></g></g><g fill="#ffffff" fill-opacity="1"><g transform="translate(1.539087, 93.541946)"><g><path d="M 27.734375 -42.609375 L 27.734375 -34.078125 L 12.8125 -34.078125 L 12.8125 -25.609375 L 26.59375 -25.609375 L 26.59375 -17.09375 L 12.8125 -17.09375 L 12.8125 0 L 3.09375 0 L 3.09375 -42.609375 Z M 27.734375 -42.609375 "/></g></g></g><g fill="#ffffff" fill-opacity="1"><g transform="translate(28.601362, 93.541946)"><g><path d="M 1.1875 -21.328125 C 1.1875 -27.492188 3.285156 -32.707031 7.484375 -36.96875 C 11.679688 -41.238281 16.742188 -43.375 22.671875 -43.375 C 28.628906 -43.375 33.6875 -41.25 37.84375 -37 C 42.007812 -32.75 44.09375 -27.523438 44.09375 -21.328125 C 44.09375 -15.097656 42.046875 -9.851562 37.953125 -5.59375 C 33.859375 -1.34375 28.765625 0.78125 22.671875 0.78125 C 16.441406 0.78125 11.300781 -1.328125 7.25 -5.546875 C 3.207031 -9.765625 1.1875 -15.023438 1.1875 -21.328125 Z M 11.671875 -21.328125 C 11.671875 -19.085938 12.015625 -17.046875 12.703125 -15.203125 C 13.390625 -13.367188 14.59375 -11.8125 16.3125 -10.53125 C 18.039062 -9.257812 20.160156 -8.625 22.671875 -8.625 C 26.285156 -8.625 29.015625 -9.863281 30.859375 -12.34375 C 32.703125 -14.820312 33.625 -17.816406 33.625 -21.328125 C 33.625 -24.804688 32.679688 -27.789062 30.796875 -30.28125 C 28.921875 -32.78125 26.210938 -34.03125 22.671875 -34.03125 C 19.160156 -34.03125 16.445312 -32.78125 14.53125 -30.28125 C 12.625 -27.789062 11.671875 -24.804688 11.671875 -21.328125 Z M 11.671875 -21.328125 "/></g></g></g><g fill="#ffffff" fill-opacity="1"><g transform="translate(71.673797, 93.541946)"><g><path d="M 3.09375 -42.609375 L 18.328125 -42.609375 C 22.429688 -42.609375 25.769531 -41.515625 28.34375 -39.328125 C 30.925781 -37.140625 32.21875 -34.015625 32.21875 -29.953125 C 32.21875 -26.816406 31.4375 -24.191406 29.875 -22.078125 C 28.3125 -19.960938 26.1875 -18.472656 23.5 -17.609375 L 38.15625 0 L 25.8125 0 L 12.8125 -16.828125 L 12.8125 0 L 3.09375 0 Z M 12.8125 -23.703125 L 13.9375 -23.703125 C 14.832031 -23.703125 15.585938 -23.71875 16.203125 -23.75 C 16.828125 -23.789062 17.535156 -23.910156 18.328125 -24.109375 C 19.117188 -24.316406 19.753906 -24.609375 20.234375 -24.984375 C 20.722656 -25.367188 21.140625 -25.921875 21.484375 -26.640625 C 21.828125 -27.367188 22 -28.25 22 -29.28125 C 22 -30.3125 21.828125 -31.1875 21.484375 -31.90625 C 21.140625 -32.632812 20.722656 -33.1875 20.234375 -33.5625 C 19.753906 -33.945312 19.117188 -34.238281 18.328125 -34.4375 C 17.535156 -34.644531 16.828125 -34.765625 16.203125 -34.796875 C 15.585938 -34.835938 14.832031 -34.859375 13.9375 -34.859375 L 12.8125 -34.859375 Z M 12.8125 -23.703125 "/></g></g></g><g fill="#ffffff" fill-opacity="1"><g transform="translate(106.431287, 93.541946)"><g/></g></g><g fill="#ffffff" fill-opacity="1"><g transform="translate(118.309731, 93.541946)"><g><path d="M 38.3125 0 L 36.296875 -25.25 L 36.046875 -25.25 L 27.3125 -0.265625 L 21.53125 -0.265625 L 12.8125 -25.25 L 12.546875 -25.25 L 10.53125 0 L 0.828125 0 L 4.640625 -42.609375 L 14.96875 -42.609375 L 24.421875 -18.015625 L 33.875 -42.609375 L 44.203125 -42.609375 L 48.03125 0 Z M 38.3125 0 "/></g></g></g><g fill="#ffffff" fill-opacity="1"><g transform="translate(164.945735, 93.541946)"><g><path d="M 27.46875 -42.609375 L 27.46875 -34.078125 L 12.8125 -34.078125 L 12.8125 -25.609375 L 26.859375 -25.609375 L 26.859375 -17.09375 L 12.8125 -17.09375 L 12.8125 -8.515625 L 27.46875 -8.515625 L 27.46875 0 L 3.09375 0 L 3.09375 -42.609375 Z M 27.46875 -42.609375 "/></g></g></g><g fill="#ffffff" fill-opacity="1"><g transform="translate(192.679394, 93.541946)"><g><path d="M 3.09375 -42.609375 L 18.328125 -42.609375 C 22.429688 -42.609375 25.769531 -41.515625 28.34375 -39.328125 C 30.925781 -37.140625 32.21875 -34.015625 32.21875 -29.953125 C 32.21875 -26.816406 31.4375 -24.191406 29.875 -22.078125 C 28.3125 -19.960938 26.1875 -18.472656 23.5 -17.609375 L 38.15625 0 L 25.8125 0 L 12.8125 -16.828125 L 12.8125 0 L 3.09375 0 Z M 12.8125 -23.703125 L 13.9375 -23.703125 C 14.832031 -23.703125 15.585938 -23.71875 16.203125 -23.75 C 16.828125 -23.789062 17.535156 -23.910156 18.328125 -24.109375 C 19.117188 -24.316406 19.753906 -24.609375 20.234375 -24.984375 C 20.722656 -25.367188 21.140625 -25.921875 21.484375 -26.640625 C 21.828125 -27.367188 22 -28.25 22 -29.28125 C 22 -30.3125 21.828125 -31.1875 21.484375 -31.90625 C 21.140625 -32.632812 20.722656 -33.1875 20.234375 -33.5625 C 19.753906 -33.945312 19.117188 -34.238281 18.328125 -34.4375 C 17.535156 -34.644531 16.828125 -34.765625 16.203125 -34.796875 C 15.585938 -34.835938 14.832031 -34.859375 13.9375 -34.859375 L 12.8125 -34.859375 Z M 12.8125 -23.703125 "/></g></g></g><g fill="#ffffff" fill-opacity="1"><g transform="translate(227.4369, 93.541946)"><g><path d="M 25.765625 -8.78125 C 27.242188 -8.78125 28.679688 -9.003906 30.078125 -9.453125 C 31.472656 -9.898438 32.5 -10.328125 33.15625 -10.734375 L 34.140625 -11.40625 L 38.265625 -3.15625 C 38.128906 -3.050781 37.941406 -2.910156 37.703125 -2.734375 C 37.460938 -2.566406 36.898438 -2.25 36.015625 -1.78125 C 35.140625 -1.3125 34.203125 -0.90625 33.203125 -0.5625 C 32.203125 -0.21875 30.894531 0.0859375 29.28125 0.359375 C 27.664062 0.640625 25.992188 0.78125 24.265625 0.78125 C 20.304688 0.78125 16.550781 -0.191406 13 -2.140625 C 9.457031 -4.085938 6.601562 -6.765625 4.4375 -10.171875 C 2.269531 -13.578125 1.1875 -17.257812 1.1875 -21.21875 C 1.1875 -24.21875 1.820312 -27.09375 3.09375 -29.84375 C 4.375 -32.601562 6.070312 -34.960938 8.1875 -36.921875 C 10.300781 -38.878906 12.769531 -40.441406 15.59375 -41.609375 C 18.414062 -42.785156 21.304688 -43.375 24.265625 -43.375 C 27.023438 -43.375 29.566406 -43.046875 31.890625 -42.390625 C 34.210938 -41.742188 35.851562 -41.09375 36.8125 -40.4375 L 38.265625 -39.453125 L 34.140625 -31.1875 C 33.890625 -31.394531 33.523438 -31.644531 33.046875 -31.9375 C 32.566406 -32.226562 31.601562 -32.613281 30.15625 -33.09375 C 28.707031 -33.582031 27.242188 -33.828125 25.765625 -33.828125 C 23.421875 -33.828125 21.320312 -33.445312 19.46875 -32.6875 C 17.613281 -31.925781 16.140625 -30.925781 15.046875 -29.6875 C 13.960938 -28.445312 13.132812 -27.113281 12.5625 -25.6875 C 12 -24.257812 11.71875 -22.804688 11.71875 -21.328125 C 11.71875 -18.085938 12.929688 -15.1875 15.359375 -12.625 C 17.785156 -10.0625 21.253906 -8.78125 25.765625 -8.78125 Z M 25.765625 -8.78125 "/></g></g></g><g fill="#ffffff" fill-opacity="1"><g transform="translate(264.10527, 93.541946)"><g><path d="M 12.8125 -17.09375 L 12.8125 0 L 3.09375 0 L 3.09375 -42.609375 L 12.8125 -42.609375 L 12.8125 -25.609375 L 26.546875 -25.609375 L 26.546875 -42.609375 L 36.25 -42.609375 L 36.25 0 L 26.546875 0 L 26.546875 -17.09375 Z M 12.8125 -17.09375 "/></g></g></g></g></g></svg>